<svg width="32.000000" height="34.000000" viewBox="0 0 32 34" fill="none" xmlns="http://www.w3.org/2000/svg" xmlns:xlink="http://www.w3.org/1999/xlink">
	<desc>
			Created with Pixso.
	</desc>
	<defs>
		<clipPath id="clip1_32">
			<rect id="IMAGE" width="32.000000" height="34.000000" fill="white" fill-opacity="0"/>
		</clipPath>
	</defs>
	<g clip-path="url(#clip1_32)">
		<path id="Vector" d="M6.39282 9.11564C6.40723 9.11504 6.42175 9.11475 6.43628 9.11475L25.5637 9.11475C25.5782 9.11475 25.5928 9.11504 25.6073 9.11564C26.4348 9.14962 27.2201 9.49016 27.8103 10.071C28.3855 10.6369 28.7355 11.3915 28.797 12.1945L31.821 30.1005C31.8226 30.11 31.8242 30.1195 31.8254 30.129C31.8911 30.594 31.8593 31.0675 31.7321 31.5195C31.6047 31.9716 31.385 32.3922 31.0864 32.7547C30.788 33.1172 30.4172 33.4136 29.998 33.6252C29.5789 33.8367 29.1201 33.9588 28.6512 33.9836C28.6326 33.9846 28.6139 33.9851 28.5952 33.9851L3.40491 33.9851C3.38623 33.9851 3.36743 33.9846 3.34875 33.9836C2.87988 33.9588 2.42126 33.8367 2.00195 33.6252C1.58276 33.4136 1.21216 33.1172 0.913574 32.7547C0.615112 32.3922 0.395264 31.9716 0.268066 31.5195C0.140747 31.0675 0.109009 30.594 0.174561 30.129C0.175903 30.1195 0.177368 30.11 0.178955 30.1005L3.20312 12.1945C3.26453 11.3915 3.61462 10.6369 4.1897 10.071C4.78003 9.49016 5.56531 9.14962 6.39282 9.11564ZM6.46155 11.2378C6.16736 11.2544 5.88904 11.3774 5.67871 11.5843C5.46411 11.7956 5.33569 12.0791 5.31848 12.3798C5.31628 12.4187 5.31189 12.4574 5.30542 12.4959L2.27515 30.4377C2.25293 30.6072 2.26538 30.7796 2.31165 30.9443C2.35913 31.1129 2.44116 31.2698 2.55249 31.405C2.66394 31.5403 2.80212 31.6509 2.9585 31.7298C3.10779 31.8051 3.27051 31.85 3.43713 31.862L28.5629 31.862C28.7296 31.85 28.8922 31.8051 29.0415 31.7298C29.198 31.6509 29.3362 31.5403 29.4475 31.405C29.5588 31.2698 29.641 31.1129 29.6884 30.9443C29.7347 30.7796 29.7472 30.6072 29.7249 30.4377L26.6947 12.4959C26.6881 12.4574 26.6838 12.4187 26.6815 12.3798C26.6643 12.0791 26.536 11.7956 26.3213 11.5843C26.111 11.3774 25.8326 11.2544 25.5386 11.2378L6.46155 11.2378Z" fill="#090909" fill-opacity="1.000000" fill-rule="evenodd"/>
		<path id="Vector" d="M16.0032 0.015625C17.5743 0.0202942 19.0951 0.571491 20.3043 1.57469C21.5135 2.57788 22.3362 3.97056 22.631 5.51389C22.741 6.08976 22.3633 6.64575 21.7874 6.75574C21.2115 6.86573 20.6556 6.48807 20.5457 5.91221C20.3433 4.85301 19.7788 3.89719 18.9489 3.20869C18.1198 2.52086 17.0773 2.14264 16.0001 2.1387C14.9268 2.14266 13.8879 2.51805 13.0601 3.20115C12.2313 3.88493 11.6652 4.83476 11.458 5.88898C11.3448 6.46425 10.7869 6.83892 10.2115 6.72584C9.63635 6.61277 9.26172 6.05476 9.37476 5.47949C9.67664 3.94358 10.5015 2.55975 11.7089 1.56355C12.9163 0.567345 14.4316 0.0203362 15.9969 0.015625L16 1.07716L16.0032 0.015625Z" fill="#090909" fill-opacity="1.000000" fill-rule="evenodd"/>
	</g>
</svg>
